# xmcd
#
# Track frame offsets:
#	150
#	18604
#	42443
#	57958
#	76528
#	99653
#	117608
#	133171
#	151071
#	169513
#	184123
#	204307
#	218699
#	241945
#	259895
#	276364
#
# Disc length: 3916 seconds
#
# Revision: 0
# Processed by: cddbd v1.5.2PL0 Copyright (c) Steve Scherf et al.
# Submitted via: EasyCDDAExtractor 16.0.9.1
#
DISCID=dc0f4a10
DTITLE=C.V. Singers - Top Sixteen 3
DYEAR=1900
DGENRE=Euro-House
TTITLE0=Eternal Grace
TTITLE1=Never Ever
TTITLE2=Doctor Jones
TTITLE3=Do Ya Think I'm Sexy
TTITLE4=My Heart Will Go On (Love From Titanic)
TTITLE5=Something About
TTITLE6=Ain't That Just The Way
TTITLE7=Cherish
TTITLE8=Torn
TTITLE9=Barbie Girl
TTITLE10=All I Have To Give
TTITLE11=Everything's Gonna Be Alright
TTITLE12=Together Again
TTITLE13=Too Much
TTITLE14=Prince Igor
TTITLE15=Lonely
EXTD=
EXTT0=
EXTT1=
EXTT2=
EXTT3=
EXTT4=
EXTT5=
EXTT6=
EXTT7=
EXTT8=
EXTT9=
EXTT10=
EXTT11=
EXTT12=
EXTT13=
EXTT14=
EXTT15=
PLAYORDER=
